<?xml version="1.0" encoding="utf-8"?>
<!-- Generator: Adobe Illustrator 24.0.1, SVG Export Plug-In . SVG Version: 6.00 Build 0)  -->
<svg version="1.1" id="Layer_1" xmlns="http://www.w3.org/2000/svg" xmlns:xlink="http://www.w3.org/1999/xlink" x="0px" y="0px"
	 viewBox="0 0 279.5 56.3" style="enable-background:new 0 0 279.5 56.3;" xml:space="preserve">
<style type="text/css">
	.st0{fill:#056D11;}
	.st1{fill:#D04514;}
</style>
<title>Time</title>
<g id="_Group_">
	<g id="_Group_2">
		<path id="_Compound_Path_" class="st0" d="M48.6,31.2v7.2c0,5.3-4.3,9.6-9.5,9.6l0,0H18.3c-5.3,0-9.5-4.3-9.5-9.5V17.8
			c0-5.3,4.3-9.5,9.5-9.5h20.1h0.1l6.6-6.6c0.1,0,0.1-0.1,0-0.2l0,0c-1.9-0.7-3.9-1-5.8-1H18.5C8.9,0.5,1.1,8.2,1.1,17.9v20.7
			C1.1,48.2,8.8,56,18.5,56h20.8c9.6,0,17.4-7.8,17.4-17.4V23.7c0-0.1,0-0.1-0.1-0.1h-0.1L48.6,31.2L48.6,31.2z"/>
	</g>
	<g id="_Group_3">
		<path id="_Path_" class="st1" d="M61.9,6.9L29.7,39c-0.1,0.1-0.2,0.1-0.2,0L17.3,26.7v-0.1c0.5-2.1,1.8-4,3.5-5.3
			c0.5-0.4,1-0.7,1.6-1h0.1l7.3,7.3l0.1,0.1c0.1,0,0.1-0.1,0.1-0.1L56.6,1h0.1C59.1,2.3,61,4.3,61.9,6.9L61.9,6.9z"/>
		<circle id="_Path_2" class="st0" cx="29.6" cy="32.3" r="2"/>
	</g>
</g>
<g id="_Group_4">
	<path class="st0" d="M103.9,18.6h-7.6c-0.7,0-1.3,0.6-1.3,1.3l0,0V47c0,0.3-0.1,0.7-0.3,0.9c-0.2,0.3-0.6,0.4-1,0.4h-8.1
		c-0.7,0-1.3-0.6-1.3-1.3l0,0V19.9c0-0.3-0.1-0.7-0.3-0.9c-0.2-0.3-0.6-0.4-1-0.4h-7.7c-0.7,0-1.3-0.6-1.3-1.3l0,0V9.9
		c0-0.7,0.6-1.3,1.3-1.3l0,0h28.6c0.4,0,0.7,0.1,1,0.4c0.2,0.2,0.4,0.6,0.4,0.9v7.4c0,0.3-0.1,0.7-0.4,0.9
		C104.6,18.5,104.3,18.6,103.9,18.6z"/>
	<path class="st0" d="M118.2,48.3H110c-0.4,0-0.7-0.1-0.9-0.4c-0.2-0.2-0.4-0.6-0.3-0.9V10c0-0.3,0.1-0.7,0.3-0.9
		c0.2-0.3,0.6-0.4,0.9-0.4h8.2c0.3,0,0.7,0.1,0.9,0.4c0.3,0.2,0.4,0.6,0.4,0.9v37c0,0.3-0.1,0.7-0.4,0.9
		C118.9,48.2,118.6,48.3,118.2,48.3z"/>
	<path class="st0" d="M169.9,10v37c0,0.3-0.1,0.7-0.4,0.9c-0.2,0.2-0.6,0.4-0.9,0.4h-8.1c-0.3,0-0.7-0.1-0.9-0.4
		c-0.2-0.2-0.4-0.6-0.4-0.9V29.5c0-0.3-0.1-0.5-0.4-0.6c0,0,0,0-0.1,0c-0.3,0-0.6,0.1-0.8,0.4L148.7,44c-0.2,0.3-0.5,0.4-0.9,0.4
		s-0.7-0.1-0.9-0.4l-9.1-14.7c-0.2-0.3-0.5-0.4-0.8-0.4s-0.5,0.3-0.5,0.5c0,0,0,0,0,0.1V47c0,0.3-0.1,0.7-0.4,0.9
		c-0.2,0.2-0.6,0.4-0.9,0.4H127c-0.7,0-1.3-0.6-1.3-1.3l0,0V10c0-0.7,0.6-1.3,1.3-1.3l0,0h7.6c0.4,0,0.8,0.1,1.1,0.3
		s0.6,0.4,0.9,0.8L147,25c0.2,0.3,0.5,0.4,0.8,0.4s0.6-0.2,0.7-0.4l10.4-15.3c0.2-0.3,0.6-0.6,0.9-0.8c0.3-0.2,0.7-0.3,1.1-0.3h7.6
		c0.3,0,0.7,0.1,0.9,0.4C169.8,9.3,170,9.6,169.9,10z"/>
	<path class="st0" d="M188.2,19.9v2.3c0,0.7,0.6,1.3,1.3,1.3l0,0h14.7c0.7,0,1.3,0.6,1.3,1.3l0,0v7.5c0,0.7-0.6,1.3-1.3,1.3l0,0
		h-14.7c-0.7,0-1.3,0.6-1.3,1.3l0,0V37c0,0.7,0.6,1.3,1.3,1.3l0,0h16.9c0.7,0,1.3,0.6,1.3,1.3l0,0v7.5c0,0.7-0.6,1.3-1.3,1.3l0,0
		h-27.6c-0.7,0-1.3-0.6-1.3-1.3l0,0V9.9c0-0.7,0.6-1.3,1.3-1.3l0,0h27.6c0.7,0,1.3,0.6,1.3,1.3l0,0v7.4c0,0.7-0.6,1.3-1.3,1.3l0,0
		h-16.9C188.8,18.6,188.2,19.2,188.2,19.9L188.2,19.9L188.2,19.9z"/>
	<path class="st0" d="M222.2,43.1c0,3.1-2.5,5.6-5.5,5.6l0,0c-0.7,0-1.5-0.1-2.1-0.4c-0.7-0.3-1.3-0.7-1.8-1.2
		c-1.1-1.1-1.6-2.5-1.6-4c0-0.7,0.1-1.4,0.4-2.1c0.3-0.6,0.7-1.2,1.2-1.7s1.1-0.9,1.8-1.2s1.4-0.4,2.1-0.4c1.5,0,2.9,0.6,4,1.6
		c0.5,0.5,0.9,1.1,1.1,1.7C222.1,41.7,222.2,42.4,222.2,43.1z"/>
	<path class="st0" d="M234.8,48.3h-8.1c-0.4,0-0.7-0.1-0.9-0.4c-0.2-0.2-0.4-0.6-0.4-0.9V10c0-0.3,0.1-0.7,0.4-0.9
		c0.2-0.3,0.6-0.4,0.9-0.4h8.1c0.7,0,1.3,0.6,1.3,1.3l0,0v37C236.1,47.7,235.6,48.3,234.8,48.3L234.8,48.3L234.8,48.3z"/>
	<path class="st0" d="M251.8,48.3h-8.1c-0.3,0-0.7-0.1-0.9-0.4c-0.2-0.2-0.4-0.6-0.4-0.9V9.9c0-0.7,0.6-1.3,1.3-1.3l0,0h16.9
		c2,0,4,0.3,5.8,1.1c1.7,0.7,3.2,1.7,4.5,3s2.3,2.8,2.9,4.5c0.7,1.8,1.1,3.8,1.1,5.8c0,2.3-0.5,4.6-1.6,6.7c-0.5,1-1.1,1.9-1.8,2.7
		c-0.7,0.8-1.5,1.5-2.3,2c-0.3,0.2-0.5,0.5-0.6,0.8s0,0.6,0.2,0.9c1.4,1.8,2.8,3.7,4.3,5.6c1.5,1.9,2.9,3.7,4.1,5.3
		c0.2,0.3,0.3,0.6,0.2,0.9c-0.1,0.3-0.4,0.5-0.7,0.5h-10.1c-0.4,0-0.8-0.1-1.2-0.3s-0.7-0.4-1-0.7c-1.2-1.5-2.3-3.1-3.4-4.6
		s-2.3-3.1-3.4-4.7c-0.5-0.6-1.3-1-2-1h-1.2c-0.7,0-1.3,0.6-1.3,1.3l0,0v8.7C253.1,47.7,252.5,48.3,251.8,48.3L251.8,48.3
		L251.8,48.3z M254.4,27h5.7c0.5,0,0.9-0.1,1.3-0.2c0.5-0.2,0.9-0.4,1.3-0.8c0.4-0.4,0.8-0.8,1-1.3c0.3-0.6,0.4-1.2,0.4-1.8
		c0-0.4-0.1-0.9-0.2-1.3c-0.1-0.5-0.4-1-0.7-1.4c-0.3-0.5-0.8-0.9-1.3-1.2c-0.6-0.3-1.3-0.5-1.9-0.5h-5.7c-0.7,0-1.3,0.6-1.3,1.3
		v5.8C253.1,26.3,253.7,26.9,254.4,27L254.4,27z"/>
</g>
</svg>
